HIERARCHY
ROOT Hips
{
	OFFSET 0.00000 0.00000 0.00000
	CHANNELS 6 Xposition Yposition Zposition Zrotation Yrotation Xrotation 
	JOINT LHipJoint
	{
		OFFSET 0 0 0
		CHANNELS 3 Zrotation Yrotation Xrotation
		JOINT LeftUpLeg
		{
			OFFSET 1.36337 -1.57426 1.11036
			CHANNELS 3 Zrotation Yrotation Xrotation
			JOINT LeftLeg
			{
				OFFSET 2.38468 -6.55187 0.00000
				CHANNELS 3 Zrotation Yrotation Xrotation
				JOINT LeftFoot
				{
					OFFSET 2.37166 -6.51609 0.00000
					CHANNELS 3 Zrotation Yrotation Xrotation
					JOINT LeftToeBase
					{
						OFFSET 0.29078 -0.79891 2.01393
						CHANNELS 3 Zrotation Yrotation Xrotation
						End Site
						{
							OFFSET 0.00000 -0.00000 1.07924
						}
					}
				}
			}
		}
	}
	JOINT RHipJoint
	{
		OFFSET 0 0 0
		CHANNELS 3 Zrotation Yrotation Xrotation
		JOINT RightUpLeg
		{
			OFFSET -1.36349 -1.57426 1.11036
			CHANNELS 3 Zrotation Yrotation Xrotation
			JOINT RightLeg
			{
				OFFSET -2.29562 -6.30717 0.00000
				CHANNELS 3 Zrotation Yrotation Xrotation
				JOINT RightFoot
				{
					OFFSET -2.40985 -6.62100 0.00000
					CHANNELS 3 Zrotation Yrotation Xrotation
					JOINT RightToeBase
					{
						OFFSET -0.23197 -0.63733 1.92232
						CHANNELS 3 Zrotation Yrotation Xrotation
						End Site
						{
							OFFSET -0.00000 -0.00000 1.01562
						}
					}
				}
			}
		}
	}
	JOINT LowerBack
	{
		OFFSET 0 0 0
		CHANNELS 3 Zrotation Yrotation Xrotation
		JOINT Spine
		{
			OFFSET -0.08565 2.03602 -0.24562
			CHANNELS 3 Zrotation Yrotation Xrotation
			JOINT Spine1
			{
				OFFSET -0.00036 2.05693 0.00216
				CHANNELS 3 Zrotation Yrotation Xrotation
				JOINT Neck
				{
					OFFSET 0 0 0
					CHANNELS 3 Zrotation Yrotation Xrotation
					JOINT Neck1
					{
						OFFSET -0.03664 1.69515 0.31789
						CHANNELS 3 Zrotation Yrotation Xrotation
						JOINT Head
						{
							OFFSET 0.00932 1.70181 -0.46013
							CHANNELS 3 Zrotation Yrotation Xrotation
							End Site
							{
								OFFSET 0.01243 1.77620 -0.19377
							}
						}
					}
				}
				JOINT LeftShoulder
				{
					OFFSET 0 0 0
					CHANNELS 3 Zrotation Yrotation Xrotation
					JOINT LeftArm
					{
						OFFSET 3.74344 0.81315 -0.36647
						CHANNELS 3 Zrotation Yrotation Xrotation
						JOINT LeftForeArm
						{
							OFFSET 4.97185 -0.00000 -0.00000
							CHANNELS 3 Zrotation Yrotation Xrotation
							JOINT LeftHand
							{
								OFFSET 3.35811 -0.00000 0.00000
								CHANNELS 3 Zrotation Yrotation Xrotation
								JOINT LeftFingerBase
								{
									OFFSET 0 0 0
									CHANNELS 3 Zrotation Yrotation Xrotation
									JOINT LeftHandIndex1
									{
										OFFSET 0.62278 -0.00000 0.00000
										CHANNELS 3 Zrotation Yrotation Xrotation
										End Site
										{
											OFFSET 0.50210 -0.00000 0.00000
										}
									}
								}
								JOINT LThumb
								{
									OFFSET 0 0 0
									CHANNELS 3 Zrotation Yrotation Xrotation
									End Site
									{
										OFFSET 0.50976 -0.00000 0.50976
									}
								}
							}
						}
					}
				}
				JOINT RightShoulder
				{
					OFFSET 0 0 0
					CHANNELS 3 Zrotation Yrotation Xrotation
					JOINT RightArm
					{
						OFFSET -3.75385 0.50666 -0.06525
						CHANNELS 3 Zrotation Yrotation Xrotation
						JOINT RightForeArm
						{
							OFFSET -4.96493 -0.00000 -0.00000
							CHANNELS 3 Zrotation Yrotation Xrotation
							JOINT RightHand
							{
								OFFSET -3.34929 -0.00000 0.00000
								CHANNELS 3 Zrotation Yrotation Xrotation
								JOINT RightFingerBase
								{
									OFFSET 0 0 0
									CHANNELS 3 Zrotation Yrotation Xrotation
									JOINT RightHandIndex1
									{
										OFFSET -0.63804 -0.00000 0.00000
										CHANNELS 3 Zrotation Yrotation Xrotation
										End Site
										{
											OFFSET -0.51441 -0.00000 0.00000
										}
									}
								}
								JOINT RThumb
								{
									OFFSET 0 0 0
									CHANNELS 3 Zrotation Yrotation Xrotation
									End Site
									{
										OFFSET -0.52226 -0.00000 0.52226
									}
								}
							}
						}
					}
				}
			}
		}
	}
}
MOTION
Frames: 7
Frame Time: .0083333
-28.5978 16.5553 1.6485 0 0 0 0 0 0 -21 0 0 0 0 0 0 0 0 0 0 0 0 0 0 21 0 0 0 0 0 0 0 0 0 0 0 0 0 0 0 0 0 0 0 0 0 0 -16 0 0 21 0 0 11 0 0 0 -8 0 0 0 0 0 0 0 0 0 0 0 0 0 0 0 0 0 0 0 0 8 0 0 0 0 0 0 0 0 0 0 0 0 0 0 0 0 0
-28.5978 16.5553 1.6485 178.1930 59.6860 -178.3590 0.0000 0.0000 0.0000 -17.5741 -5.0260 -6.5722 2.2183 9.3068 26.7598 1.5029 11.0306 -29.4627 0.4263 4.1906 11.6134 0.0000 0.0000 0.0000 16.5009 0.9341 -2.5060 -1.3866 -7.4504 21.0568 -1.5638 -13.3550 -31.7186 -0.4832 -4.4577 12.3679 -4.0616 -0.1746 -7.9007 0.2787 0.1801 2.2587 2.6030 -0.0868 6.8033 -4.0167 -3.6815 -21.0371 2.8429 -3.5708 37.1341 1.4208 -1.0801 17.2920 0.0000 0.0000 0.0000 -92.8415 -5.0534 33.7645 9.3957 -15.7889 -1.3057 -0.0000 0.0000 -0.9334 23.6561 -11.3013 -4.9065 -7.1250 0.0000 -0.0000 -2.4327 17.6789 1.5805 0.0000 0.0000 0.0000 89.3435 1.9192 24.8503 -13.6933 22.2946 -2.7107 0.0000 -0.0000 -6.5109 -10.7691 -30.5210 5.5173 7.1250 -0.0000 -0.0000 23.4992 -59.3759 -8.5410
-28.6010 16.5639 1.6447 178.4740 59.7842 -178.1000 0.0000 0.0000 0.0000 -17.4379 -5.1648 -6.5705 2.2357 9.3407 26.8669 1.5368 11.0459 -29.6984 0.2395 3.1494 8.6949 0.0000 0.0000 0.0000 16.6810 1.1391 -2.3279 -1.3562 -7.3718 20.8215 -1.5482 -13.5363 -31.7735 -0.5017 -4.5409 12.6035 -3.9091 -0.2386 -7.8912 0.3996 0.0650 2.0781 2.6279 -0.1337 6.6138 -4.1979 -3.7112 -20.4266 2.8769 -3.5378 37.1911 1.4838 -1.0790 17.1744 0.0000 -0.0000 0.0000 -92.9525 -4.5575 33.6046 9.4720 -15.9095 -1.3265 -0.0000 0.0000 -0.9397 23.5730 -10.8740 -4.7056 -7.1250 0.0000 -0.0000 -2.4717 18.1490 1.5803 0.0000 -0.0000 0.0000 89.2203 1.5295 24.8244 -13.6420 22.2206 -2.6912 0.0000 -0.0000 -6.4529 -10.5110 -29.5721 5.2318 7.1250 -0.0000 -0.0000 23.0255 -58.4542 -7.8428
-28.6053 16.5686 1.6404 178.2900 59.8997 -178.1990 0.0000 0.0000 0.0000 -17.5713 -5.1901 -6.6077 2.2332 9.3358 26.8515 1.5375 11.1393 -29.7750 0.0908 1.9438 5.3503 0.0000 0.0000 0.0000 16.5415 1.1584 -2.4743 -1.3609 -7.3841 20.8584 -1.5170 -13.6144 -31.6468 -0.4549 -4.3269 11.9983 -3.9555 -0.2995 -7.9080 0.4446 -0.0180 1.8882 2.6899 -0.1708 6.4284 -4.4434 -3.7511 -19.8715 2.9934 -3.5357 37.2132 1.5872 -1.0893 17.0584 -0.0000 0.0000 0.0000 -93.0890 -4.1967 33.1565 9.4555 -15.8834 -1.3220 -0.0000 0.0000 -0.7266 23.2383 -10.8662 -4.6278 -7.1250 0.0000 -0.0000 -2.7071 18.1878 1.7288 -0.0000 0.0000 0.0000 89.1011 1.0940 24.8828 -13.6382 22.2152 -2.6898 0.0000 -0.0000 -6.3580 -10.4538 -29.4149 5.1778 7.1250 -0.0000 -0.0000 22.9657 -58.2981 -7.7337
-28.6098 16.5662 1.6400 178.2950 59.9934 -178.1250 0.0000 0.0000 0.0000 -17.5765 -5.0043 -6.7915 2.2345 9.3384 26.8596 1.4872 11.3169 -29.5820 0.0043 0.4215 1.1582 0.0000 0.0000 0.0000 16.5221 1.1311 -2.6558 -1.3574 -7.3748 20.8307 -1.4242 -13.8809 -31.2964 -0.3839 -3.9792 11.0182 -3.9714 -0.3700 -7.9181 0.5358 -0.1197 1.7035 2.7808 -0.2168 6.2467 -4.6504 -3.7797 -19.3324 3.0617 -3.5185 37.2101 1.6637 -1.0965 16.9296 -0.0000 0.0000 0.0000 -93.2367 -3.9538 32.5679 9.3888 -15.7779 -1.3038 -0.0000 0.0000 -0.5175 22.7451 -11.0641 -4.5998 -7.1250 0.0000 -0.0000 -3.0621 18.0187 1.9675 -0.0000 0.0000 0.0000 88.9808 0.6550 24.9891 -13.6686 22.2590 -2.7013 0.0000 -0.0000 -6.2209 -10.4561 -30.1346 5.2933 7.1250 -0.0000 -0.0000 23.5145 -58.9543 -8.3070
-28.6115 16.5644 1.6405 178.2690 60.0569 -178.1200 0.0000 0.0000 0.0000 -17.5861 -4.9364 -6.8373 2.2323 9.3340 26.8457 1.4950 11.2696 -29.5967 0.0014 -0.2456 -0.6749 0.0000 0.0000 0.0000 16.4816 1.0177 -2.7908 -1.3591 -7.3794 20.8443 -1.3835 -13.8746 -31.0341 -0.3577 -3.8424 10.6337 -4.1273 -0.5572 -7.9179 0.7189 -0.3706 1.3444 3.0279 -0.3357 5.8899 -4.9720 -3.7070 -18.0803 3.0782 -3.2848 37.1069 1.7833 -1.0331 16.5611 -0.0000 -0.0000 0.0000 -93.5159 -3.2032 31.8392 9.3693 -15.7471 -1.2985 -0.0000 0.0000 -0.2470 23.0463 -11.1905 -4.7198 -7.1250 0.0000 -0.0000 -2.8555 17.8555 1.8447 -0.0000 -0.0000 0.0000 88.7139 -0.2299 25.3571 -13.7172 22.3290 -2.7197 0.0000 -0.0000 -6.0648 -10.4442 -30.5697 5.3558 7.1250 -0.0000 -0.0000 23.8725 -59.3462 -8.6693
-28.6114 16.5660 1.6407 178.3020 60.0724 -178.0990 0.0000 0.0000 0.0000 -17.5456 -4.9770 -6.7962 2.2315 9.3326 26.8413 1.5463 11.0292 -29.7482 0.0698 1.7042 4.6887 0.0000 0.0000 0.0000 16.5025 1.0492 -2.7756 -1.3585 -7.3778 20.8396 -1.3852 -13.8715 -31.0419 -0.3601 -3.8549 10.6687 -4.0807 -0.5423 -7.8914 0.6968 -0.3550 1.3637 2.9805 -0.3265 5.8932 -5.0006 -3.8107 -18.0816 3.1968 -3.4832 37.1034 1.8024 -1.1023 16.5755 -0.0000 -0.0000 0.0000 -93.4068 -3.2244 31.9698 9.3458 -15.7098 -1.2922 -0.0000 0.0000 -0.0471 23.7788 -11.0888 -4.8438 -7.1250 0.0000 -0.0000 -2.3367 17.8973 1.5068 -0.0000 -0.0000 0.0000 88.8456 -0.3260 25.0776 -13.7013 22.3060 -2.7137 0.0000 -0.0000 -5.7783 -10.5713 -30.5001 5.4110 7.1250 -0.0000 -0.0000 23.6860 -59.3120 -8.5772
